<?xml version="1.0" standalone="no"?>
<!DOCTYPE svg PUBLIC "-//W3C//DTD SVG 20010904//EN"
 "http://www.w3.org/TR/2001/REC-SVG-20010904/DTD/svg10.dtd">
<svg version="1.0" xmlns="http://www.w3.org/2000/svg"
 width="1024.000000pt" height="1024.000000pt" viewBox="0 0 1024.000000 1024.000000"
 preserveAspectRatio="xMidYMid meet">
<metadata>
Created by potrace 1.14, written by Peter Selinger 2001-2017
</metadata>
<g transform="translate(0.000000,1024.000000) scale(0.100000,-0.100000)"
fill="#000000" stroke="none">
<path d="M1354 9635 c-21 -7 -59 -24 -84 -39 -55 -31 -64 -32 -203 -5 -114 22
-170 18 -195 -14 -15 -19 -30 -1561 -17 -1762 7 -102 25 -244 36 -290 6 -22
12 -53 14 -68 21 -186 23 -327 5 -487 -6 -58 -12 -139 -12 -180 0 -78 23 -219
42 -262 10 -20 9 -31 -4 -56 -14 -26 -16 -76 -16 -332 0 -167 4 -300 9 -300 5
0 17 12 26 28 10 15 35 42 57 60 21 19 38 40 38 49 0 8 5 13 12 11 6 -2 27 13
46 34 19 21 40 38 47 38 6 0 20 9 30 20 10 11 23 20 30 20 15 0 52 43 57 67 2
10 7 16 12 13 40 -23 53 308 16 405 -6 16 -8 35 -6 42 5 11 -9 66 -31 123 -14
37 -12 79 8 144 11 39 25 79 30 88 5 10 9 28 9 41 0 14 13 51 30 83 16 32 30
67 30 77 0 9 4 17 9 17 5 0 11 13 14 30 9 42 38 63 92 66 41 2 88 17 105 34 3
3 41 23 85 46 66 34 82 46 90 72 5 18 12 32 16 32 4 0 13 26 19 58 7 31 16 62
20 67 5 6 11 27 15 47 10 52 31 58 77 19 9 -8 25 -17 35 -20 35 -10 164 -4
191 9 15 7 38 18 52 23 14 6 32 16 40 23 8 6 22 11 31 11 46 -1 254 195 281
264 4 11 12 19 17 19 5 0 13 10 17 23 9 30 77 171 85 177 4 3 26 42 50 88 48
93 140 207 151 189 9 -14 23 -1 23 21 0 19 63 53 103 57 15 1 34 4 42 7 79 27
130 39 140 33 7 -4 15 -3 19 2 3 6 38 20 76 32 96 31 125 43 160 66 42 28 105
87 105 98 0 13 47 56 54 49 3 -3 11 9 17 26 6 18 15 30 19 27 4 -3 11 6 14 20
4 14 11 25 16 25 6 0 10 6 10 13 0 7 11 29 24 48 14 20 28 48 32 63 3 14 10
26 15 26 5 0 9 7 9 15 0 8 4 15 8 15 5 0 15 11 22 25 7 13 16 22 20 20 4 -2 5
7 2 21 -5 26 11 66 39 97 9 10 14 28 12 41 -3 13 2 34 9 47 8 13 14 35 12 49
-1 14 2 30 6 35 16 22 18 54 2 60 -8 3 -79 8 -156 10 -78 3 -170 11 -206 19
-178 40 -266 43 -334 10 -34 -16 -101 -18 -211 -4 -67 8 -294 23 -345 22 -8 0
-37 -3 -65 -6 -165 -18 -228 -16 -310 10 -131 43 -236 43 -420 2 -96 -21 -217
-8 -315 35 -67 29 -111 35 -156 22z"/>
<path d="M5129 9461 l-35 -20 -3 -98 c-2 -54 -4 -134 -6 -178 -2 -68 5 -168
19 -251 2 -12 10 -34 19 -50 16 -32 31 -81 31 -104 1 -8 5 -14 10 -12 14 5 57
-91 46 -102 -5 -5 -5 -17 1 -29 14 -25 15 -107 2 -115 -18 -13 -21 -39 -8 -66
8 -15 10 -26 4 -26 -6 0 -9 -8 -7 -17 1 -10 -2 -24 -7 -32 -4 -8 -10 -60 -11
-115 -2 -59 -7 -102 -14 -104 -5 -2 -10 -12 -10 -22 0 -10 -6 -21 -12 -24 -7
-3 -2 -3 12 0 20 5 23 4 13 -7 -7 -7 -13 -24 -13 -37 0 -13 -4 -20 -10 -17 -5
3 -10 2 -10 -4 0 -5 6 -11 13 -14 9 -3 9 -7 -2 -20 -11 -14 -11 -18 3 -23 20
-8 21 -24 1 -24 -14 0 -21 -42 -16 -87 1 -6 -3 -14 -9 -18 -5 -3 -7 -17 -4
-31 3 -13 2 -24 -4 -24 -5 0 -10 -24 -11 -52 -2 -83 -9 -171 -17 -198 -4 -14
-6 -31 -5 -39 1 -7 -1 -20 -5 -30 -4 -9 -8 -34 -9 -56 -1 -22 -5 -55 -9 -73
-5 -19 -9 -62 -11 -97 -2 -35 -6 -69 -10 -75 -4 -6 -2 -16 3 -23 6 -8 6 -21 0
-37 -6 -14 -12 -60 -13 -103 -2 -43 -6 -81 -9 -84 -3 -3 -1 -13 4 -23 5 -10 7
-20 4 -22 -13 -14 -32 -169 -34 -283 -1 -44 -6 -88 -12 -99 -6 -12 -6 -22 0
-28 6 -6 6 -24 1 -46 -8 -37 -18 -115 -23 -184 -2 -21 1 -38 7 -38 5 0 4 -7
-3 -15 -7 -8 -13 -46 -15 -84 -1 -39 -7 -77 -15 -86 -7 -9 -8 -15 -2 -15 6 0
10 -20 9 -50 -1 -27 -6 -50 -11 -50 -5 0 -3 -6 3 -14 8 -10 9 -15 1 -18 -7 -2
-12 -47 -14 -118 -2 -63 -5 -119 -6 -125 -1 -5 -1 -12 0 -15 8 -21 4 -84 -8
-130 -17 -67 -39 -233 -45 -343 -2 -29 -8 -52 -17 -57 -12 -8 -12 -10 -2 -10
11 0 13 -18 8 -86 -4 -48 -10 -93 -15 -102 -5 -8 -6 -23 -4 -33 3 -11 1 -19
-4 -19 -6 0 -9 -17 -8 -37 1 -21 -2 -45 -6 -53 -4 -8 -15 -46 -23 -84 -9 -39
-20 -72 -24 -75 -4 -4 -8 -13 -9 -21 -6 -41 -17 -77 -27 -90 -7 -8 -18 -28
-26 -45 -8 -16 -22 -42 -32 -57 -10 -14 -18 -33 -18 -42 0 -15 -28 -36 -49
-36 -6 0 -8 7 -4 16 5 13 8 13 15 2 7 -9 8 -7 3 7 -17 49 -17 55 0 55 13 0 15
3 7 13 -11 13 -5 87 7 87 3 0 7 11 8 25 4 52 6 60 13 70 4 6 13 38 20 73 7 34
17 62 21 62 5 0 9 18 9 41 0 22 3 38 8 36 4 -3 8 18 9 45 0 28 5 53 10 57 4 3
10 31 11 60 2 30 6 60 10 65 3 6 7 24 9 41 1 16 7 55 13 85 6 30 13 84 16 120
3 36 8 81 11 100 7 40 11 101 18 311 4 133 3 149 -17 190 -27 56 -47 79 -68
79 -10 0 -23 6 -29 14 -17 20 -61 26 -107 15 -21 -5 -49 -11 -61 -13 -20 -3
-103 -79 -103 -95 0 -4 -13 -17 -30 -29 -16 -13 -30 -29 -30 -38 0 -8 -10 -25
-23 -37 -13 -12 -29 -41 -37 -65 -7 -23 -19 -47 -26 -53 -7 -6 -10 -17 -7 -25
3 -8 -1 -14 -11 -14 -9 0 -16 -8 -16 -18 0 -10 -4 -22 -9 -27 -10 -11 -91
-192 -95 -213 -1 -7 -5 -12 -9 -12 -4 0 -10 0 -13 0 -4 0 -1 6 5 13 6 8 8 17
5 20 -4 3 -10 42 -14 85 -15 141 -59 236 -137 292 -39 28 -56 34 -94 33 -39
-1 -87 -20 -109 -43 -3 -3 -17 -11 -32 -19 -16 -8 -28 -21 -28 -28 0 -8 -4
-11 -10 -8 -5 3 -10 -4 -10 -15 0 -12 -11 -35 -25 -52 -14 -16 -25 -39 -25
-51 0 -12 -7 -31 -15 -41 -8 -11 -15 -30 -15 -43 0 -13 -5 -23 -11 -23 -7 0
-9 9 -5 24 4 16 0 29 -14 41 -11 10 -20 23 -20 29 0 6 -13 37 -29 70 -28 55
-33 60 -84 77 -79 27 -152 15 -189 -30 -10 -12 -18 -23 -18 -25 0 -3 -10 -26
-22 -53 -11 -26 -22 -54 -24 -61 -5 -29 -35 -82 -46 -82 -7 0 -7 -5 1 -14 8
-10 9 -16 1 -21 -5 -3 -10 -15 -10 -26 0 -10 -7 -19 -15 -19 -11 0 -15 -11
-15 -36 0 -24 -4 -33 -12 -28 -8 5 -9 2 -5 -10 4 -9 -2 -31 -12 -49 -10 -17
-16 -38 -13 -45 2 -7 -3 -24 -12 -37 -9 -14 -13 -25 -9 -25 5 0 3 -4 -2 -8 -6
-4 -28 -61 -50 -127 -22 -66 -44 -123 -50 -127 -5 -4 -6 -10 -3 -14 6 -5 -1
-31 -28 -99 -4 -11 -8 -25 -9 -31 0 -6 -8 -22 -18 -37 -10 -15 -15 -27 -11
-27 4 0 1 -7 -6 -15 -7 -8 -9 -15 -5 -15 4 0 0 -11 -9 -25 -9 -14 -14 -30 -11
-34 3 -5 0 -11 -5 -13 -6 -2 -13 -18 -15 -37 -2 -19 -10 -41 -18 -50 -7 -9
-21 -50 -32 -91 -10 -41 -25 -83 -33 -92 -8 -10 -12 -18 -7 -18 4 0 3 -6 -3
-13 -6 -7 -9 -22 -6 -34 4 -12 0 -22 -9 -26 -10 -4 -14 -17 -12 -39 2 -21 -6
-49 -22 -78 -14 -26 -20 -46 -14 -48 6 -2 11 -8 11 -13 0 -4 -8 -6 -17 -2 -10
3 -15 3 -11 -2 4 -4 1 -17 -7 -28 -11 -15 -12 -24 -3 -34 7 -9 7 -17 -2 -28
-6 -8 -9 -23 -5 -36 5 -16 4 -19 -6 -14 -9 6 -11 4 -6 -8 3 -9 2 -17 -3 -19
-5 -2 -10 -22 -13 -46 -2 -23 -8 -47 -14 -53 -6 -6 -8 -24 -3 -44 6 -25 4 -38
-6 -46 -8 -6 -12 -15 -9 -19 9 -15 -7 -40 -26 -40 -23 0 -59 34 -59 55 0 8 -4
15 -9 15 -5 0 -14 13 -20 30 -5 16 -15 30 -20 30 -6 0 -11 5 -11 12 0 6 -7 18
-15 27 -37 39 -65 80 -65 95 0 9 -7 16 -15 16 -14 0 -37 31 -34 47 4 23 -2 35
-17 29 -9 -3 -12 -2 -9 5 4 5 -5 21 -18 33 -14 13 -23 27 -20 30 3 3 -2 8 -11
12 -9 3 -16 14 -16 23 0 10 -11 28 -25 41 -14 13 -23 25 -21 28 5 4 -29 46
-61 75 -13 12 -23 27 -23 34 0 7 -18 32 -40 54 -22 23 -40 48 -40 55 0 8 -5
14 -10 14 -6 0 -18 16 -27 35 -9 19 -22 35 -28 35 -7 0 -17 11 -23 25 -6 14
-16 25 -22 25 -11 0 -45 60 -42 74 2 5 -3 6 -11 3 -8 -3 -20 4 -28 15 -17 26
-67 86 -94 115 -48 51 -65 71 -65 78 0 4 -22 29 -50 56 -46 45 -64 69 -40 54
6 -3 10 -1 10 4 0 6 -7 11 -15 11 -8 0 -15 7 -15 15 0 8 -6 15 -13 15 -8 0
-20 11 -27 25 -7 14 -19 25 -26 25 -6 0 -18 10 -27 23 -24 35 -259 265 -350
341 -26 22 -49 48 -53 58 -3 10 -11 18 -18 18 -7 0 -18 11 -24 25 -6 14 -16
25 -22 25 -12 0 -29 13 -63 47 l-22 22 2 -203 c1 -199 2 -204 27 -240 14 -21
42 -50 63 -65 21 -16 47 -38 57 -50 11 -11 25 -21 33 -21 8 0 11 -4 8 -10 -3
-5 -1 -10 5 -10 7 0 10 -6 7 -14 -3 -8 1 -17 9 -20 15 -6 20 -81 5 -90 -4 -3
-8 -24 -8 -47 0 -23 -4 -44 -9 -48 -5 -3 -10 -22 -11 -41 -3 -49 -10 -105 -13
-105 -1 0 -3 -26 -4 -58 -2 -32 -7 -62 -12 -65 -5 -4 -10 -33 -11 -66 -1 -32
-7 -64 -13 -70 -5 -7 -7 -16 -3 -20 11 -11 5 -109 -7 -116 -10 -6 -6 -82 6
-101 2 -4 0 -9 -6 -11 -18 -6 -30 -914 -16 -1228 12 -273 14 -319 20 -337 3
-10 8 -32 10 -48 2 -17 9 -51 14 -78 5 -27 6 -50 1 -53 -5 -3 -4 -14 1 -25 12
-21 2 -47 -31 -80 -10 -10 -19 -23 -19 -28 0 -5 -15 -24 -33 -43 -41 -44 -67
-76 -67 -86 0 -4 -11 -16 -24 -26 -30 -22 -33 -37 -41 -206 -4 -74 -8 -151
-10 -170 -3 -47 6 -120 15 -120 4 0 7 6 6 14 0 8 2 14 6 13 10 -3 58 45 58 59
0 11 27 29 41 26 3 0 5 9 5 21 -1 13 4 21 12 19 7 -1 15 6 19 15 4 10 9 20 12
23 17 14 71 90 71 99 0 5 6 14 14 18 7 4 21 23 30 40 9 18 20 33 24 33 4 0 13
13 20 28 6 16 25 41 40 58 75 78 146 288 112 329 -7 8 -10 21 -7 29 3 8 2 29
-3 48 -8 33 -16 124 -25 293 -3 50 -9 135 -14 190 -8 93 -6 567 3 645 2 19 7
132 11 250 4 118 9 218 11 222 3 4 7 85 10 180 3 95 7 187 10 203 2 17 7 56 9
88 3 32 8 64 12 70 3 6 8 39 10 75 2 35 8 73 14 84 6 11 8 31 5 44 -4 13 -2
24 3 24 12 0 51 -63 51 -83 0 -9 6 -14 13 -11 15 5 57 -31 57 -49 0 -7 4 -6
10 3 5 8 10 11 11 5 4 -24 6 -31 14 -47 4 -10 11 -15 16 -12 5 3 10 0 10 -5 1
-6 2 -15 3 -20 0 -6 11 -19 24 -31 12 -11 22 -25 22 -30 0 -6 7 -10 15 -10 14
0 41 -38 37 -53 -1 -4 9 -12 22 -17 13 -5 27 -18 31 -30 4 -11 18 -28 31 -37
18 -11 24 -22 20 -36 -3 -13 1 -21 15 -24 10 -3 19 -9 19 -13 0 -4 12 -20 28
-37 53 -58 92 -108 92 -118 0 -5 12 -23 26 -40 14 -16 23 -24 19 -18 -3 7 -2
13 3 13 6 0 15 -14 21 -30 5 -17 17 -33 26 -36 8 -3 15 -14 15 -25 0 -10 9
-23 21 -29 15 -9 19 -18 15 -35 -5 -19 1 -29 29 -51 19 -14 35 -32 35 -39 0
-6 9 -20 20 -30 11 -10 20 -26 20 -37 0 -10 7 -18 16 -18 8 0 13 -4 10 -9 -3
-5 4 -11 15 -14 14 -4 20 -11 16 -21 -3 -8 0 -20 8 -26 7 -6 16 -26 19 -44 4
-19 14 -40 22 -47 15 -13 28 -37 91 -179 13 -30 30 -66 37 -80 7 -14 21 -51
31 -82 11 -32 23 -58 27 -58 4 0 8 -5 8 -10 0 -6 11 -28 24 -49 14 -21 22 -42
19 -45 -4 -3 1 -6 11 -6 9 0 19 -7 22 -15 4 -8 15 -15 25 -15 13 0 17 -5 12
-16 -5 -13 -2 -15 18 -9 13 4 27 10 32 14 8 8 19 62 18 93 0 10 4 18 9 18 9 0
23 38 61 160 13 41 28 81 34 89 5 8 10 24 11 35 1 29 27 130 35 136 4 3 9 27
12 53 3 26 11 54 17 62 7 8 10 21 7 30 -4 8 -2 17 3 20 5 3 9 13 8 23 0 9 7
51 16 92 9 41 25 117 36 169 11 52 18 96 16 99 -3 2 2 11 10 20 10 9 13 24 10
38 -4 14 -2 24 4 24 5 0 10 9 10 19 0 11 5 23 11 27 8 4 7 9 -2 15 -9 5 -9 9
-3 9 7 0 17 20 23 44 6 24 17 46 25 49 10 4 13 16 10 35 -3 18 1 34 11 42 8 7
15 20 15 29 0 9 6 25 13 36 8 11 21 43 29 70 9 28 30 97 48 155 18 58 38 119
45 135 7 17 23 59 35 95 12 36 28 74 35 85 6 11 18 38 25 60 7 22 18 54 26 70
7 17 29 69 48 117 49 122 52 127 61 97 4 -13 16 -35 26 -49 13 -17 19 -42 19
-80 0 -30 0 -72 0 -92 1 -20 -3 -39 -8 -42 -5 -3 -7 -36 -5 -73 3 -55 -1 -79
-18 -118 -13 -28 -24 -59 -25 -70 -1 -11 -7 -40 -14 -65 -6 -25 -12 -54 -14
-65 -2 -11 -9 -42 -15 -70 -7 -27 -15 -68 -18 -90 -3 -22 -9 -44 -13 -50 -4
-5 -10 -23 -13 -40 -12 -68 -56 -226 -66 -238 -8 -10 -7 -17 1 -25 8 -8 8 -15
-1 -26 -7 -9 -11 -21 -8 -28 2 -7 0 -24 -6 -38 -5 -14 -11 -36 -12 -49 -8 -56
-37 -171 -46 -176 -5 -4 -9 -19 -9 -35 0 -16 -4 -32 -10 -35 -5 -3 -10 -19
-10 -35 0 -16 -7 -36 -16 -44 -8 -9 -12 -16 -8 -16 5 0 3 -5 -4 -12 -7 -7 -12
-28 -12 -48 0 -20 -3 -40 -7 -44 -4 -4 -9 -19 -11 -33 -2 -15 -7 -34 -13 -44
-33 -62 -42 -322 -14 -432 l17 -68 36 2 c46 2 82 24 82 48 0 11 5 21 11 23 19
6 40 80 44 158 3 41 7 91 10 110 3 19 5 56 5 82 0 27 5 48 11 48 5 0 7 5 4 11
-4 5 1 19 11 30 10 11 12 19 6 19 -7 0 -12 5 -12 11 0 5 4 8 9 4 14 -8 17 0
40 115 12 58 27 115 33 127 6 11 8 25 4 31 -3 5 3 27 13 48 10 22 22 64 26 94
4 30 11 60 16 65 4 6 10 26 12 45 2 19 9 45 15 57 7 12 12 33 12 47 0 14 7 51
16 83 9 32 18 77 20 101 2 23 16 77 30 119 34 101 36 109 41 166 3 29 11 51
19 54 9 3 12 13 9 23 -3 10 -1 21 4 24 6 4 8 13 4 21 -3 9 0 22 7 30 12 15 26
64 37 135 3 19 9 40 13 45 4 6 19 51 34 100 15 50 39 115 54 145 14 30 27 60
28 66 2 15 36 87 44 94 3 3 14 18 23 33 24 38 43 22 52 -44 4 -27 11 -49 16
-49 4 0 8 -36 8 -80 0 -44 3 -85 7 -91 3 -6 0 -15 -7 -20 -10 -6 -11 -11 -3
-16 5 -5 11 -38 12 -74 1 -36 4 -87 6 -113 4 -34 2 -45 -7 -39 -9 5 -9 3 0 -8
6 -8 10 -28 8 -44 -8 -71 -18 -115 -26 -115 -5 0 -9 -11 -9 -25 0 -13 -11 -68
-24 -122 -14 -54 -27 -115 -31 -135 -3 -21 -13 -45 -22 -53 -9 -9 -17 -35 -18
-58 -1 -39 -21 -110 -36 -132 -4 -5 -10 -30 -14 -55 -13 -87 -27 -130 -42
-130 -8 0 -11 -5 -7 -11 8 -13 -8 -90 -41 -204 -32 -110 -49 -186 -47 -212 1
-12 -3 -25 -8 -28 -6 -3 -10 -15 -10 -26 0 -10 -5 -19 -11 -19 -6 0 -8 -7 -5
-15 3 -9 -2 -34 -11 -56 -10 -27 -12 -44 -6 -50 7 -7 7 -21 2 -37 -14 -47 -39
-215 -40 -277 -2 -69 14 -144 33 -157 16 -11 75 -3 94 13 15 12 53 91 60 124
3 16 20 108 50 275 8 45 11 55 23 83 6 16 9 33 6 37 -3 5 3 35 14 67 11 32 23
78 26 103 4 25 15 72 26 105 10 33 23 89 30 125 7 36 18 76 25 90 8 18 9 31 3
43 -7 12 -7 17 2 15 6 -2 16 11 22 27 5 17 16 34 24 38 9 6 10 13 4 25 -6 11
-6 24 0 35 6 9 7 17 3 17 -3 0 -2 6 4 13 12 15 49 141 79 277 3 14 10 30 15
37 5 7 7 17 3 23 -3 5 -2 10 3 10 5 0 9 17 10 37 1 20 5 39 9 42 5 3 10 17 11
31 2 14 7 30 11 35 4 6 8 21 9 35 1 28 18 90 37 135 7 17 16 46 20 65 4 19 20
62 36 96 16 34 29 68 29 76 0 9 7 18 15 22 8 3 14 9 14 13 -1 4 0 15 3 23 3 8
14 38 24 65 9 28 23 55 30 60 6 6 15 24 18 40 4 17 27 60 52 97 24 37 44 75
44 83 0 8 4 15 9 15 5 0 20 21 33 46 62 120 75 130 72 51 -1 -29 2 -68 6 -87
4 -20 3 -68 -2 -108 -5 -45 -5 -79 1 -91 7 -12 6 -22 -1 -29 -8 -8 -8 -15 0
-25 8 -9 8 -17 2 -23 -6 -6 -12 -42 -14 -81 -2 -39 -6 -75 -10 -81 -3 -5 -7
-28 -9 -49 -2 -22 -7 -45 -11 -51 -3 -6 -9 -39 -13 -74 -6 -69 -11 -103 -13
-103 0 0 -2 -21 -4 -46 -2 -25 -7 -52 -11 -59 -5 -8 -10 -23 -11 -34 -1 -12
-7 -39 -14 -61 -6 -22 -12 -57 -13 -77 0 -21 -3 -38 -7 -38 -7 0 -32 -99 -46
-175 -3 -22 -11 -45 -15 -51 -5 -6 -7 -29 -4 -50 3 -27 0 -43 -12 -56 -9 -10
-18 -28 -19 -41 -1 -12 -16 -76 -32 -142 -17 -66 -33 -140 -37 -165 -3 -25
-13 -70 -22 -100 -8 -30 -16 -71 -18 -90 -3 -49 -13 -84 -24 -88 -5 -2 -7 -12
-4 -23 3 -10 1 -25 -5 -32 -6 -6 -18 -41 -27 -77 -9 -36 -23 -78 -30 -95 -22
-52 -28 -70 -26 -81 1 -7 -5 -14 -14 -18 -8 -3 -15 -15 -15 -26 0 -11 -9 -28
-19 -37 -11 -9 -18 -20 -15 -25 3 -5 1 -15 -5 -22 -7 -8 -11 -18 -10 -22 3
-12 -22 -64 -30 -64 -4 0 -7 -9 -8 -21 -1 -11 -18 -53 -37 -92 -47 -97 -76
-177 -76 -207 0 -19 3 -21 9 -11 8 13 12 13 27 1 9 -8 24 -15 33 -15 9 0 17
-7 17 -15 1 -8 5 -25 9 -37 6 -18 11 -21 26 -12 10 5 25 22 33 37 8 15 25 38
38 52 13 14 27 33 31 42 3 10 12 15 21 12 19 -7 31 13 17 30 -8 9 -7 18 4 32
8 10 15 29 15 40 0 12 6 27 14 33 8 7 26 36 40 66 14 30 31 55 37 55 8 0 8 5
-1 15 -10 13 -10 19 4 33 9 10 16 28 16 40 0 11 7 25 16 30 8 5 16 15 18 23 1
8 11 32 21 54 10 22 19 42 20 45 2 3 6 15 10 28 4 12 11 22 16 22 5 0 8 3 7 7
-4 14 38 97 55 112 10 7 17 23 17 35 0 12 4 26 9 31 5 6 11 19 13 30 1 11 13
34 25 52 13 17 23 37 23 44 0 7 11 27 25 44 13 18 21 35 18 39 -4 3 -2 6 4 6
6 0 13 16 16 36 3 20 17 50 30 67 13 18 28 43 32 57 4 14 14 32 22 42 8 9 16
24 17 33 1 9 7 20 13 23 11 8 38 82 35 96 -2 5 4 16 13 26 9 10 15 24 13 31
-2 9 4 13 15 11 9 -2 18 2 18 8 1 5 2 13 3 18 0 4 11 21 24 39 12 17 22 38 22
47 0 8 9 20 21 26 11 7 18 18 15 25 -3 8 -2 15 2 17 15 6 53 68 48 77 -3 5 3
11 14 14 12 3 20 14 20 27 0 12 14 38 30 57 17 18 30 38 30 43 0 6 6 9 13 7 6
-1 12 5 12 13 0 8 6 19 13 23 6 4 12 19 12 32 0 14 4 25 9 25 5 0 17 17 26 38
9 20 32 48 51 62 18 14 34 33 34 43 0 9 3 17 8 17 4 0 30 23 59 50 29 28 57
50 63 50 6 0 13 7 17 16 8 20 95 103 109 104 6 0 17 11 24 25 7 14 21 25 31
25 12 0 16 5 13 15 -4 9 0 15 9 15 8 0 17 7 21 15 11 31 26 15 21 -22 -3 -21
-8 -58 -11 -83 -4 -38 -13 -75 -42 -160 -3 -8 -5 -32 -4 -53 0 -34 -2 -37 -15
-25 -15 12 -15 11 -4 -9 9 -17 9 -23 0 -23 -6 0 -9 -6 -6 -14 3 -8 -1 -20 -9
-26 -8 -7 -14 -21 -14 -31 0 -10 -5 -21 -11 -24 -6 -4 -8 -13 -6 -19 3 -7 -1
-26 -7 -42 -7 -16 -21 -54 -31 -84 -10 -30 -25 -68 -33 -85 -9 -16 -17 -36
-18 -43 -1 -7 -9 -23 -17 -35 -8 -12 -13 -30 -11 -39 1 -11 -4 -18 -13 -18
-11 0 -14 -7 -9 -24 4 -16 0 -30 -9 -40 -8 -8 -18 -30 -22 -48 -3 -18 -12 -41
-20 -50 -8 -9 -13 -23 -10 -30 2 -7 -2 -24 -9 -38 -7 -14 -25 -52 -40 -85 -15
-33 -30 -62 -33 -65 -3 -3 -8 -14 -9 -25 -2 -11 -7 -22 -12 -25 -10 -7 -60
-118 -60 -135 0 -7 -4 -17 -10 -20 -6 -3 -10 -15 -10 -26 0 -10 -4 -19 -8 -19
-5 0 -16 -25 -26 -55 -9 -30 -22 -55 -28 -55 -6 0 -8 -10 -5 -22 4 -15 -2 -33
-17 -53 -13 -17 -26 -42 -27 -56 -2 -13 -16 -43 -31 -66 -16 -23 -28 -47 -28
-53 0 -6 -10 -32 -22 -58 -12 -26 -22 -55 -23 -64 -1 -10 -9 -26 -18 -36 -9
-10 -17 -23 -17 -29 0 -6 -7 -23 -14 -39 -8 -15 -12 -32 -9 -37 3 -5 1 -12 -4
-16 -14 -10 -73 -110 -73 -125 0 -7 -7 -19 -15 -26 -8 -7 -15 -23 -15 -36 0
-13 -11 -35 -25 -50 -14 -15 -25 -35 -25 -45 0 -10 -4 -21 -10 -24 -5 -3 -17
-31 -26 -61 -8 -30 -26 -66 -39 -80 -13 -14 -21 -32 -19 -39 3 -8 -4 -22 -15
-32 -12 -9 -21 -23 -21 -29 0 -6 -6 -17 -14 -23 -8 -7 -36 -55 -62 -107 -25
-51 -51 -94 -55 -94 -5 0 -9 -6 -9 -14 0 -13 -17 -52 -42 -96 -4 -8 -17 -33
-27 -55 -10 -22 -32 -69 -49 -105 -16 -36 -60 -137 -97 -225 -75 -179 -91
-217 -111 -259 -7 -15 -16 -44 -20 -65 -3 -20 -14 -54 -25 -76 -20 -44 -109
-317 -109 -337 0 -7 -7 -26 -16 -43 -13 -26 -42 -121 -64 -210 -4 -17 -14 -46
-22 -65 -26 -59 -31 -74 -33 -110 -1 -19 -5 -43 -9 -52 -6 -13 -3 -17 11 -17
39 0 144 -11 153 -16 11 -7 40 5 40 17 0 6 -7 8 -15 4 -8 -3 -15 -2 -15 3 0 5
9 11 20 14 16 4 19 11 14 35 -4 19 0 38 10 55 9 14 21 47 26 73 10 54 36 150
47 174 4 8 7 20 8 25 5 40 19 74 31 79 11 4 12 10 4 25 -7 13 -7 22 0 26 5 3
10 0 10 -7 0 -10 3 -9 10 2 6 9 5 19 -2 28 -8 9 -8 16 -2 20 15 10 44 77 44
102 0 12 9 42 19 68 31 76 34 86 32 99 -1 6 3 14 9 18 5 3 10 17 10 31 0 13 4
24 9 24 5 0 12 12 16 28 7 29 39 65 49 55 3 -4 6 -2 6 4 0 6 11 14 25 17 14 4
25 10 25 15 0 5 15 14 33 20 19 6 43 25 56 41 12 17 28 30 36 30 8 0 15 5 15
12 0 6 3 8 7 5 8 -8 93 39 110 61 7 8 28 25 46 36 86 53 242 160 245 168 2 4
12 8 22 8 9 0 24 7 31 16 7 9 22 20 34 25 19 9 37 20 159 101 31 21 61 38 66
38 6 0 10 5 10 10 0 6 7 10 15 10 8 0 15 3 15 8 0 4 21 16 46 27 25 11 49 25
52 30 4 6 30 21 57 34 28 14 56 29 64 35 7 6 20 11 29 13 9 1 18 7 20 12 2 6
12 11 22 11 9 0 23 7 30 15 8 10 21 13 33 9 14 -4 17 -3 12 6 -5 8 -4 11 2 7
14 -9 63 15 63 30 0 6 4 14 9 17 19 12 37 -6 50 -52 7 -26 16 -56 21 -67 5
-11 16 -47 25 -80 17 -59 21 -71 44 -128 6 -15 11 -41 11 -57 0 -15 5 -30 10
-32 12 -4 -24 -156 -40 -172 -6 -6 -10 -21 -10 -35 0 -15 -7 -39 -15 -55 -9
-17 -16 -45 -17 -63 -1 -19 -5 -36 -10 -39 -4 -3 -8 -20 -8 -37 0 -18 -7 -42
-15 -54 -9 -13 -11 -24 -6 -28 6 -3 4 -17 -5 -33 -7 -15 -14 -34 -14 -43 0 -8
-4 -19 -8 -25 -8 -7 -34 -136 -34 -161 0 -5 -5 -14 -11 -22 -13 -15 -32 -78
-53 -176 -4 -16 -10 -36 -15 -45 -7 -15 -25 -80 -35 -130 -3 -14 -10 -34 -15
-45 -5 -11 -11 -29 -12 -40 -2 -11 -7 -27 -10 -35 -5 -15 -13 -49 -24 -105 -3
-16 -14 -42 -24 -57 -11 -14 -19 -28 -19 -31 0 -2 18 -12 40 -22 22 -10 40
-24 40 -32 0 -7 8 -13 19 -13 10 0 30 -6 44 -13 26 -14 24 -14 232 1 142 10
296 9 460 -3 50 -4 97 -7 105 -7 8 -1 61 0 118 0 l104 2 -7 32 c-8 39 -33 116
-46 140 -5 10 -9 26 -9 35 0 10 -7 27 -15 37 -8 11 -15 27 -15 37 0 23 -53
191 -84 266 -34 83 -36 166 -3 198 38 39 52 59 52 75 1 29 60 140 72 136 12
-5 26 23 21 40 -4 16 13 54 24 54 6 0 9 3 5 6 -3 4 1 13 9 22 9 8 13 24 10 36
-4 15 1 26 15 34 11 7 19 18 18 25 -3 16 22 67 33 67 4 0 8 7 8 16 0 9 9 23
20 32 12 10 22 28 24 42 3 31 26 80 38 80 4 0 8 4 8 10 0 5 16 44 35 86 19 41
35 80 35 86 0 6 7 19 16 29 9 10 17 32 19 49 1 17 9 36 17 43 22 18 50 67 38
67 -6 0 -5 9 2 25 6 14 16 25 23 25 7 0 11 14 10 35 0 19 3 35 7 35 7 0 32 50
43 88 3 12 11 22 16 22 5 0 9 11 9 24 0 13 7 29 14 36 8 6 23 35 32 63 9 29
34 88 56 131 21 44 38 87 38 96 0 9 5 21 11 27 5 5 11 21 13 34 1 13 8 34 14
46 7 12 12 31 12 42 0 12 4 21 8 21 5 0 17 15 27 34 11 20 31 38 52 45 19 7
37 19 40 27 3 8 25 19 49 25 25 7 50 19 57 29 7 9 29 23 49 30 31 12 35 16 25
29 -10 11 -9 13 3 9 21 -7 72 20 64 34 -5 7 -2 9 9 5 8 -3 21 1 27 8 7 8 16
12 22 9 5 -3 40 19 78 50 38 31 73 56 78 56 5 0 22 11 38 25 16 14 34 25 41
25 6 0 24 15 40 34 15 18 42 40 59 49 38 19 154 129 154 145 0 7 8 12 18 12
11 0 33 16 51 36 20 21 39 33 47 30 10 -4 16 4 21 24 3 17 11 30 17 30 15 0
103 86 123 121 10 16 21 29 26 29 4 0 15 16 23 35 8 19 21 35 29 35 8 0 15 6
15 14 0 8 14 24 31 36 16 12 28 28 25 35 -6 16 13 35 36 35 21 0 23 11 6 28
-9 9 -8 12 5 12 10 0 17 8 17 20 0 13 5 18 15 14 8 -4 15 -1 15 5 0 13 32 60
68 99 12 14 22 31 22 38 0 7 9 18 20 24 11 6 30 30 41 53 12 23 25 44 29 47 3
3 21 25 38 50 18 25 55 72 82 105 27 33 49 66 50 73 0 6 9 12 20 12 11 0 20 7
20 15 0 8 4 15 10 15 5 0 12 11 16 24 3 14 12 27 20 30 11 4 11 -2 -2 -37 -9
-23 -19 -49 -23 -57 -4 -8 -8 -35 -10 -60 -1 -24 -6 -49 -10 -55 -5 -5 -11
-27 -15 -47 -5 -27 -11 -36 -21 -31 -16 6 -21 -12 -6 -21 5 -3 11 -19 13 -36
4 -24 1 -30 -14 -30 -15 0 -18 -5 -13 -21 5 -15 4 -19 -4 -15 -7 4 -11 0 -11
-12 0 -10 -3 -22 -7 -26 -11 -10 -16 -37 -15 -79 0 -25 -4 -37 -14 -37 -8 0
-14 -4 -14 -10 0 -5 5 -10 10 -10 6 0 10 -4 10 -10 0 -5 -7 -10 -16 -10 -12 0
-14 -7 -9 -30 4 -19 3 -30 -4 -30 -19 0 -12 -20 7 -20 12 -1 9 -5 -11 -16 -17
-9 -26 -21 -23 -29 3 -8 0 -16 -7 -18 -9 -3 -9 -7 1 -19 10 -12 8 -20 -9 -42
-11 -15 -18 -33 -15 -41 3 -8 1 -15 -5 -15 -7 0 -9 -10 -5 -25 5 -18 2 -25 -8
-25 -14 0 -32 -36 -27 -54 1 -5 -4 -13 -10 -17 -10 -6 -10 -11 0 -23 10 -12
10 -16 2 -16 -8 0 -10 -8 -6 -20 4 -12 0 -31 -9 -45 -9 -13 -16 -32 -16 -42 0
-10 -7 -31 -15 -46 -8 -15 -11 -35 -8 -43 3 -9 0 -20 -7 -24 -13 -8 -15 -14
-24 -75 -2 -16 -11 -57 -19 -90 -8 -33 -12 -76 -9 -95 5 -32 3 -34 -12 -21
-14 12 -16 11 -16 -10 0 -13 -7 -33 -15 -43 -8 -11 -15 -29 -15 -40 0 -12 -7
-34 -16 -51 -21 -38 -34 -81 -39 -125 -7 -56 -20 -95 -33 -96 -23 -3 -24 -4
-12 -19 13 -16 6 -50 -9 -41 -9 6 -21 -15 -27 -49 -2 -11 -12 -45 -23 -75 -11
-30 -20 -64 -21 -74 0 -11 -7 -27 -16 -37 -8 -9 -16 -27 -16 -40 -1 -13 -7
-31 -13 -39 -16 -20 -46 -120 -40 -130 3 -5 -5 -17 -18 -27 -13 -10 -21 -26
-19 -37 2 -10 -2 -22 -8 -26 -7 -4 -13 -16 -15 -26 -3 -30 -33 -92 -47 -97 -7
-3 1 -6 19 -6 22 -1 38 -9 52 -28 12 -14 24 -23 27 -20 12 11 43 -13 38 -28
-5 -11 1 -15 19 -15 17 0 28 -7 32 -20 4 -14 15 -20 35 -20 38 0 60 -9 60 -26
0 -17 2 -17 35 -2 23 10 28 10 37 -5 5 -10 14 -15 19 -11 10 6 68 -9 106 -28
12 -6 29 -8 38 -4 9 3 26 0 38 -6 12 -7 26 -11 30 -10 5 1 27 -3 50 -9 40 -11
126 -19 192 -19 16 0 32 -5 35 -10 3 -6 24 -11 46 -13 21 -1 44 -5 49 -8 6 -3
30 -5 55 -5 25 1 50 -2 57 -7 6 -4 35 -10 65 -12 29 -2 76 -7 103 -11 28 -4
62 -7 78 -8 15 0 27 -4 27 -8 0 -4 12 -6 28 -5 l27 2 5 94 c6 111 -1 126 -62
136 -24 4 -49 12 -55 17 -7 6 -20 7 -29 4 -8 -3 -22 1 -31 9 -17 18 -11 60 14
87 9 10 17 34 19 54 3 36 27 121 45 159 21 45 59 222 53 248 -4 19 -1 29 10
33 13 5 14 10 5 20 -6 7 -7 19 -2 26 10 17 11 158 1 158 -4 0 -8 7 -8 15 0 8
7 15 15 15 12 0 14 8 9 40 -4 23 -2 45 4 52 5 7 10 33 10 58 0 25 0 79 1 120
0 123 -4 200 -11 200 -3 0 0 14 9 30 11 23 13 49 9 108 -10 130 -10 143 -1
272 4 69 7 134 6 145 -1 11 0 43 1 70 2 72 1 101 -10 185 -6 41 -9 129 -6 195
2 68 -1 144 -8 175 -13 65 -12 93 4 123 7 12 11 27 9 32 -3 8 -6 51 -10 144
-1 7 -7 11 -14 8 -9 -3 -13 28 -14 139 -1 79 -4 148 -7 152 -7 11 -26 88 -33
130 -4 26 0 36 20 52 14 11 29 35 32 53 4 17 11 34 14 37 9 6 46 81 47 95 0 6
6 21 12 35 17 35 35 171 34 259 0 69 -2 75 -29 97 l-28 22 -19 -39 c-10 -22
-34 -51 -52 -65 -21 -16 -31 -31 -27 -40 4 -10 -15 -35 -51 -69 -31 -30 -56
-57 -56 -61 0 -3 -16 -29 -35 -55 -19 -27 -35 -54 -35 -59 0 -6 -6 -10 -14
-10 -8 0 -17 -9 -21 -19 -3 -11 -20 -35 -37 -53 -17 -18 -41 -50 -55 -70 -13
-21 -28 -38 -33 -38 -6 0 -10 -7 -10 -14 0 -8 -22 -42 -50 -75 -27 -33 -50
-67 -50 -75 0 -8 -9 -17 -19 -21 -11 -3 -26 -19 -33 -35 -7 -17 -18 -30 -25
-30 -7 0 -16 -12 -19 -27 -4 -15 -20 -38 -36 -51 -15 -13 -28 -30 -28 -38 0
-8 -11 -19 -25 -24 -14 -5 -25 -17 -25 -28 0 -11 -16 -36 -35 -56 -19 -21 -35
-42 -35 -47 0 -5 -7 -9 -16 -9 -10 0 -14 -5 -10 -16 3 -8 2 -12 -4 -9 -6 3
-10 1 -10 -5 0 -14 -32 -58 -77 -106 -18 -19 -33 -38 -33 -43 0 -4 -10 -16
-21 -27 -12 -10 -25 -30 -30 -42 -5 -13 -18 -26 -29 -29 -11 -3 -17 -9 -14
-14 3 -6 -13 -28 -35 -51 -23 -22 -41 -46 -41 -53 0 -6 -9 -20 -20 -30 -12
-10 -30 -34 -41 -52 -11 -18 -27 -33 -35 -33 -8 0 -14 -9 -14 -19 0 -11 -10
-28 -22 -38 -30 -25 -50 -61 -42 -75 4 -6 3 -8 -3 -5 -5 4 -16 -5 -23 -19 -9
-17 -16 -21 -21 -12 -5 8 -12 3 -20 -15 -7 -15 -16 -27 -22 -27 -5 0 -7 -7 -4
-15 4 -9 -5 -21 -23 -32 -17 -9 -30 -25 -30 -35 0 -11 -5 -15 -14 -12 -8 3
-17 0 -22 -7 -4 -8 -3 -10 4 -5 21 13 13 -5 -10 -25 -13 -10 -29 -18 -36 -19
-7 0 -10 -5 -7 -10 8 -13 -14 -35 -43 -44 -12 -4 -21 -12 -19 -19 1 -6 -6 -11
-15 -12 -10 0 -18 -4 -17 -10 0 -5 -10 -13 -23 -16 -13 -3 -22 -12 -22 -21 1
-9 -10 -22 -25 -29 -14 -8 -38 -26 -53 -41 -18 -19 -33 -26 -44 -21 -13 5 -16
2 -12 -9 9 -21 -39 -48 -51 -29 -6 8 -11 9 -15 3 -3 -6 0 -13 6 -16 9 -3 5
-11 -12 -26 -14 -11 -36 -30 -50 -43 -23 -20 -149 -107 -156 -107 -3 0 -125
-89 -151 -110 -7 -6 -15 -10 -18 -10 -4 0 -13 -7 -21 -15 -9 -8 -26 -15 -39
-15 -14 0 -25 -7 -28 -20 -3 -11 -14 -20 -25 -20 -10 0 -27 -11 -38 -24 -10
-14 -21 -23 -26 -20 -8 5 -49 -15 -59 -30 -4 -5 -11 -6 -17 -2 -5 3 -12 -3
-15 -14 -3 -11 -14 -20 -25 -20 -10 0 -27 -9 -37 -20 -9 -10 -20 -18 -24 -17
-3 1 -17 -6 -31 -15 -19 -13 -35 -15 -67 -9 -24 5 -43 4 -43 0 0 -5 -9 -9 -20
-9 -11 0 -19 5 -17 12 1 6 -6 14 -17 16 -11 2 -16 0 -12 -7 11 -16 -27 -1 -41
17 -10 12 -13 12 -13 3 0 -10 -3 -11 -14 -2 -13 11 -23 14 -85 27 -14 3 -29 7
-33 10 -5 3 -27 8 -49 10 -22 3 -53 10 -67 16 -15 7 -34 13 -42 15 -51 9 -77
15 -90 21 -8 3 -19 7 -25 7 -5 1 -17 5 -25 8 -8 3 -31 8 -50 10 -19 3 -75 14
-125 25 -49 11 -104 22 -122 25 -17 3 -35 7 -40 10 -5 3 -75 15 -157 27 -196
28 -196 28 -196 84 0 25 -4 47 -8 50 -5 3 -14 63 -21 133 -7 70 -16 154 -20
185 -4 32 -4 61 1 66 4 4 4 22 -1 40 -5 17 -6 34 -2 36 4 3 6 23 4 46 -2 23 2
50 8 62 6 11 15 45 20 77 23 140 26 151 55 181 27 28 64 40 64 22 0 -5 21 -9
47 -11 26 -1 53 -7 60 -13 21 -17 271 -28 348 -14 22 3 44 11 49 16 6 6 24 10
41 10 18 0 53 14 85 35 30 19 62 35 72 35 9 0 38 20 64 45 26 25 49 44 51 41
6 -6 29 14 120 106 46 48 108 100 126 108 35 15 118 80 161 126 53 58 55 78
16 124 -11 13 -20 29 -20 36 0 7 -11 21 -25 32 -14 11 -25 29 -25 40 0 14 -12
27 -35 38 -20 9 -34 19 -31 21 8 9 -104 136 -183 207 -151 136 -200 168 -261
172 -19 2 -46 5 -60 9 -50 13 -94 13 -119 1 -14 -8 -52 -17 -83 -20 -32 -4
-60 -12 -63 -17 -4 -5 -24 -9 -46 -9 -42 0 -89 31 -89 60 0 15 -50 60 -66 60
-3 0 -19 10 -36 21 -24 17 -44 22 -95 21 -36 -1 -72 -7 -80 -14 -14 -12 -31
-22 -78 -48 -11 -7 -38 -34 -60 -61 -37 -45 -77 -70 -92 -56 -11 12 -11 57 1
57 7 0 11 15 10 40 -1 32 4 43 28 61 15 12 28 30 28 41 0 10 7 21 15 24 8 4
15 17 15 30 0 13 5 24 10 24 21 0 45 37 46 70 0 31 4 36 30 40 26 5 27 7 10
16 -12 8 -15 14 -7 18 6 4 11 19 11 33 0 18 4 24 15 19 9 -3 15 0 15 9 0 8 8
23 18 33 9 9 17 22 18 27 3 23 17 55 25 55 5 0 9 11 9 24 0 12 12 36 28 52 28
31 62 95 62 119 0 8 6 18 14 22 18 11 36 47 36 72 0 11 9 25 19 30 10 6 29 31
41 56 12 25 28 45 36 45 7 0 11 6 8 14 -3 7 1 16 9 19 8 3 21 23 27 44 7 21
19 46 28 56 8 9 12 17 8 17 -4 0 2 12 13 26 12 15 21 32 21 39 0 7 6 18 14 25
8 6 12 18 9 26 -3 8 -1 14 5 14 15 0 112 168 112 194 0 6 11 23 25 38 14 15
25 34 25 42 0 8 4 16 8 18 17 7 53 78 46 90 -4 7 -3 10 1 6 11 -10 54 62 48
79 -3 7 2 13 11 13 9 0 16 5 16 12 0 6 20 44 45 84 25 39 45 78 45 85 0 7 6
20 14 28 14 17 73 122 115 206 28 56 39 142 22 173 -14 27 -64 37 -103 21 -23
-9 -39 -30 -67 -88 -58 -116 -75 -145 -93 -159 -10 -7 -18 -18 -18 -24 0 -16
-109 -228 -125 -245 -8 -7 -17 -23 -21 -36 -3 -12 -16 -35 -27 -51 -11 -15
-23 -42 -26 -59 -5 -21 -14 -33 -29 -37 -13 -3 -23 -9 -23 -15 -1 -14 -40 -99
-49 -105 -4 -3 -10 -17 -14 -32 -3 -16 -13 -28 -22 -28 -8 0 -13 -4 -9 -9 8
-14 -16 -61 -32 -61 -7 0 -13 -11 -13 -25 0 -15 -6 -25 -15 -25 -8 0 -12 -6
-9 -14 3 -7 -6 -26 -20 -41 -14 -15 -26 -34 -26 -42 0 -8 -12 -26 -26 -40 -16
-16 -24 -33 -21 -44 3 -12 0 -19 -9 -19 -9 0 -14 -12 -15 -32 0 -18 -3 -27 -6
-21 -7 19 -35 -12 -37 -42 0 -14 -7 -25 -14 -25 -9 0 -11 -7 -7 -19 3 -11 0
-21 -9 -24 -8 -3 -16 -16 -18 -29 -2 -17 -9 -22 -26 -21 -14 2 -22 -2 -20 -10
3 -18 -12 -58 -34 -89 -11 -16 -16 -28 -11 -28 4 0 0 -5 -9 -11 -10 -5 -18
-18 -18 -29 0 -10 -3 -20 -7 -22 -5 -1 -21 -29 -37 -60 -15 -32 -32 -58 -37
-58 -5 0 -9 -11 -9 -25 0 -14 -9 -33 -20 -42 -11 -10 -20 -27 -20 -40 0 -12
-5 -25 -10 -28 -6 -4 -8 -9 -6 -13 2 -4 -2 -16 -10 -27 -8 -10 -14 -15 -14
-11 0 5 -7 3 -15 -4 -8 -7 -15 -21 -15 -32 0 -22 -47 -108 -68 -124 -8 -5 -15
-22 -15 -36 -1 -14 -6 -24 -11 -21 -4 3 -5 -5 -1 -18 4 -18 4 -20 -4 -10 -8
12 -12 13 -26 1 -13 -11 -19 -10 -36 9 -41 44 -130 56 -189 26 -21 -11 -29
-12 -32 -2 -9 23 2 172 12 175 5 2 10 28 10 57 0 30 4 56 8 59 5 3 8 19 7 36
-1 16 2 30 7 30 4 0 8 7 8 15 0 8 -7 15 -16 15 -18 0 -10 38 12 56 16 13 19
39 4 29 -6 -4 -10 5 -10 20 0 19 4 26 14 22 8 -3 17 1 20 9 3 8 -1 14 -9 14
-12 0 -14 8 -10 32 4 18 11 35 16 39 6 3 -1 9 -15 13 -31 8 -35 26 -5 26 15 0
19 4 15 16 -4 9 -2 22 4 28 5 7 11 42 13 77 2 36 6 70 10 75 3 5 2 16 -3 24
-5 9 -5 19 1 26 7 8 6 14 -1 19 -14 9 -13 28 3 22 8 -3 12 11 13 49 1 29 5 65
8 79 5 19 3 25 -5 20 -7 -5 -6 1 2 16 7 13 12 28 11 32 -9 31 -8 56 4 78 9 18
10 29 2 37 -5 5 -7 16 -3 22 8 12 12 50 19 145 3 57 14 155 21 200 2 17 11 78
19 137 8 59 17 112 20 117 6 9 19 159 19 214 0 15 4 27 9 27 5 0 8 17 7 38 -2
21 0 42 3 47 3 6 6 29 6 52 1 23 6 51 12 62 6 11 13 44 15 73 3 29 7 71 10 93
3 22 8 72 11 110 3 39 12 80 20 93 8 12 12 27 9 32 -4 6 2 13 12 17 10 4 24
13 31 20 18 17 62 16 86 -2 11 -8 30 -15 43 -15 13 0 26 -6 29 -14 3 -8 12
-12 19 -10 7 3 16 0 20 -5 3 -6 11 -9 16 -6 5 4 9 1 9 -6 0 -16 31 -38 53 -39
9 0 17 -7 17 -15 0 -8 11 -17 25 -21 14 -3 25 -12 25 -20 0 -8 7 -14 15 -14 9
0 18 -7 22 -15 5 -14 62 -46 88 -50 6 0 9 -5 8 -11 -1 -6 18 -21 43 -34 24
-14 46 -32 49 -41 3 -9 13 -19 23 -22 35 -12 124 -68 148 -94 13 -14 27 -23
31 -19 4 3 12 -7 19 -24 7 -17 17 -30 21 -29 21 3 33 -2 33 -15 0 -8 10 -18
23 -22 12 -4 24 -10 27 -14 3 -4 22 -10 43 -13 30 -5 42 -2 55 14 9 10 20 19
25 19 25 0 59 64 61 114 2 37 -48 114 -79 122 -14 3 -26 16 -29 30 -4 13 -11
24 -16 24 -5 0 -25 15 -43 34 -19 19 -43 36 -53 38 -11 2 -18 10 -16 16 1 7
-5 12 -13 12 -8 0 -15 7 -15 15 0 9 -9 15 -23 15 -12 0 -30 9 -40 20 -9 11
-24 20 -32 20 -9 0 -14 4 -10 9 3 5 -8 18 -25 27 -16 10 -30 24 -30 31 0 7 -6
13 -12 13 -7 0 -26 14 -42 30 -16 17 -34 30 -40 30 -6 0 -17 9 -24 20 -7 12
-17 18 -22 15 -6 -3 -10 -1 -10 4 0 6 -7 11 -15 11 -8 0 -15 7 -15 15 0 8 -6
15 -12 15 -7 0 -28 13 -46 28 -25 21 -41 27 -63 24 -16 -2 -35 0 -42 6 -21 17
-147 43 -228 46 -103 5 -119 11 -119 46 0 16 -4 31 -9 34 -4 3 -6 17 -3 31 2
14 -1 32 -8 40 -6 8 -9 24 -6 37 3 13 3 17 0 11 -3 -7 -9 -13 -14 -13 -11 0
-20 39 -9 45 4 3 6 12 3 20 -4 8 -9 13 -14 10 -4 -2 -5 7 -2 20 3 17 -1 27
-12 31 -9 3 -13 11 -10 16 4 6 1 14 -7 18 -10 7 -10 12 2 26 12 16 12 17 -2
12 -13 -5 -16 1 -14 33 1 21 -1 39 -6 39 -5 0 -6 12 -4 28 3 15 7 74 9 132 2
58 7 113 11 123 14 35 -18 52 -103 55 -61 2 -84 -2 -113 -17z m46 -1541 c-3
-5 -10 -10 -16 -10 -5 0 -9 5 -9 10 0 6 7 10 16 10 8 0 12 -4 9 -10z m300
-2420 c3 -5 1 -10 -4 -10 -6 0 -11 5 -11 10 0 6 2 10 4 10 3 0 8 -4 11 -10z
m4006 -517 c1 -16 2 -109 4 -208 6 -341 16 -620 22 -645 13 -50 11 -150 -3
-150 -10 0 -11 -6 -5 -23 5 -13 10 -66 10 -118 3 -169 4 -353 3 -384 -2 -106
-4 -130 -15 -137 -8 -5 -6 -8 6 -8 9 0 17 -7 17 -15 0 -8 -5 -15 -10 -15 -6 0
-10 -19 -9 -42 1 -24 -1 -65 -4 -93 -3 -27 -2 -70 2 -95 4 -30 1 -72 -10 -124
-10 -43 -16 -93 -14 -112 2 -19 -1 -36 -5 -39 -5 -3 -7 -26 -5 -50 2 -29 0
-45 -8 -45 -8 0 -8 -3 0 -11 7 -7 8 -18 3 -28 -4 -9 -13 -43 -19 -76 -35 -178
-55 -262 -67 -276 -8 -8 -14 -23 -14 -32 0 -9 -5 -19 -10 -22 -6 -4 -8 -10 -5
-15 3 -5 1 -17 -4 -27 -6 -10 -13 -35 -16 -56 -5 -31 -10 -37 -31 -37 -14 0
-23 -4 -20 -9 6 -9 -17 -8 -126 10 -43 7 -78 17 -78 21 0 5 -8 8 -17 7 -10 -1
-20 0 -23 1 -3 1 -16 4 -30 6 -38 5 -113 21 -130 27 -8 3 -37 8 -65 11 -57 6
-140 27 -174 46 -21 10 -22 17 -17 53 9 54 33 124 51 150 8 12 15 31 15 44 0
12 4 24 9 28 14 8 43 115 38 137 -3 10 0 18 6 18 15 0 49 59 41 71 -3 6 -1 16
5 23 7 8 11 18 10 22 -5 22 29 125 45 136 5 3 10 26 10 50 1 29 8 53 24 72 12
16 22 41 22 57 0 15 5 29 11 31 9 3 14 28 24 123 3 30 5 38 31 109 8 21 13 41
10 43 -3 3 1 12 9 20 8 8 15 25 15 38 0 13 5 27 10 30 6 3 10 17 10 31 0 13 4
24 9 24 5 0 13 10 16 23 4 12 15 40 25 62 24 53 59 173 59 205 0 33 5 51 19
76 6 12 9 24 6 27 -3 2 9 41 26 85 17 44 33 90 35 101 2 12 7 26 10 31 3 5 12
45 20 87 7 43 20 96 29 118 8 22 15 52 16 66 0 15 7 32 15 39 8 7 15 27 15 46
0 18 4 35 9 38 4 3 12 29 15 58 4 29 14 68 23 86 10 20 13 44 9 63 -5 25 -3
30 9 25 10 -4 15 1 14 17 0 12 4 38 10 57 5 19 14 51 19 71 10 41 42 99 54 99
4 0 8 -12 9 -27z m-3578 -66 c3 -8 -6 -26 -19 -40 -13 -14 -22 -32 -19 -39 6
-15 -32 -35 -57 -30 -32 6 -18 80 19 107 22 16 70 17 76 2z m-482 -1179 c7
-40 13 -88 13 -105 -1 -18 2 -33 5 -33 3 0 7 -26 8 -58 3 -74 7 -102 19 -110
13 -10 18 -30 19 -80 1 -24 6 -47 11 -50 5 -4 10 -16 11 -27 5 -68 18 -131 27
-137 8 -6 7 -11 -3 -17 -8 -5 -9 -11 -3 -15 5 -3 8 -18 6 -33 -1 -16 3 -40 11
-55 7 -15 11 -36 8 -47 -3 -10 1 -30 8 -42 7 -13 14 -35 16 -49 1 -14 7 -56
13 -95 7 -38 12 -76 13 -82 0 -7 5 -13 12 -13 6 0 11 -8 12 -17 0 -10 4 -48 8
-84 7 -61 6 -68 -12 -78 -11 -5 -23 -8 -26 -5 -3 3 -11 -3 -18 -13 -8 -14 -19
-18 -37 -15 -20 4 -24 2 -19 -12 5 -12 1 -16 -18 -16 -14 0 -25 -4 -25 -10 0
-5 -4 -10 -9 -10 -5 0 -22 -5 -38 -12 -15 -6 -34 -12 -42 -14 -8 -1 -17 -7
-20 -13 -4 -6 -27 -20 -51 -31 -49 -23 -102 -52 -110 -60 -5 -5 -48 -30 -93
-53 -12 -7 -36 -22 -54 -34 -17 -13 -36 -23 -42 -23 -5 0 -14 -6 -18 -13 -4
-8 -23 -22 -40 -32 -18 -11 -33 -22 -33 -26 0 -4 -12 -10 -27 -14 -16 -3 -43
-19 -62 -35 -18 -16 -51 -37 -72 -47 -21 -9 -39 -21 -39 -26 0 -13 -31 -36
-48 -37 -7 0 -22 -9 -34 -20 -12 -11 -29 -20 -39 -20 -9 0 -19 -7 -23 -15 -3
-8 -28 -29 -56 -46 -27 -17 -50 -35 -50 -41 0 -6 -11 -8 -24 -6 -18 4 -27 -1
-35 -19 -9 -20 -41 -33 -41 -17 0 14 54 104 63 104 5 0 7 7 3 15 -3 8 -1 15 4
15 6 0 10 9 10 20 0 11 5 20 10 20 6 0 10 7 10 15 0 9 10 32 23 53 13 20 26
44 30 52 4 8 11 22 16 30 5 8 19 36 31 63 13 26 27 47 32 47 4 0 8 6 8 13 0 7
11 29 25 49 14 20 25 46 25 58 0 11 7 23 16 27 8 3 13 11 10 19 -3 7 2 18 10
24 8 7 14 19 14 26 0 8 11 33 25 55 14 22 30 50 35 62 6 12 15 29 20 37 6 8
21 40 35 70 14 30 34 71 46 90 40 69 43 75 44 82 0 3 3 10 8 14 4 4 7 15 7 25
0 9 16 40 35 68 19 28 35 57 35 65 0 7 7 19 15 26 8 7 15 23 15 36 0 13 8 32
18 42 10 10 18 29 18 43 -1 13 4 26 9 29 9 4 27 45 42 95 4 11 9 22 12 25 4 3
15 22 26 44 11 21 26 40 33 43 6 3 12 17 12 32 0 29 41 76 55 64 4 -5 5 -2 1
5 -4 7 -1 15 9 18 12 5 14 14 10 35 -4 19 -3 29 5 29 6 0 9 4 5 9 -3 5 -1 12
5 16 5 3 15 15 21 27 8 15 8 19 0 14 -6 -4 -11 -2 -11 3 0 6 4 11 10 11 5 0
12 11 16 24 3 14 13 28 22 31 16 7 16 8 -1 14 -16 6 -15 9 7 41 21 32 22 36 7
48 -9 7 -11 11 -4 8 6 -4 14 -2 18 4 12 20 22 1 36 -72z m464 -678 c11 -4 36
-6 55 -5 19 1 41 -2 48 -8 7 -5 30 -10 52 -10 22 0 45 -5 50 -12 6 -7 19 -11
29 -8 10 2 35 -3 56 -11 20 -9 41 -13 46 -10 5 2 17 0 28 -6 14 -7 22 -7 26 0
5 8 11 7 21 -1 8 -6 14 -8 14 -3 0 4 6 1 13 -8 13 -17 40 -26 102 -34 22 -3
44 -9 50 -13 5 -4 23 -8 39 -9 16 -1 34 -6 40 -11 6 -5 30 -12 54 -16 23 -4
42 -10 42 -14 0 -4 15 -7 33 -7 17 0 65 -11 105 -23 40 -13 84 -21 98 -18 13
2 24 1 24 -3 0 -5 9 -6 19 -3 31 8 60 -13 57 -42 -4 -29 -23 -55 -41 -55 -8 0
-11 -8 -8 -20 3 -11 -2 -31 -11 -44 -9 -14 -13 -32 -10 -40 4 -10 1 -16 -9
-16 -9 0 -19 -18 -27 -47 -8 -27 -22 -59 -32 -72 -10 -13 -15 -27 -12 -32 3
-5 1 -9 -4 -9 -4 0 -14 -24 -22 -52 -14 -56 -35 -81 -60 -72 -8 3 -33 7 -55 9
-22 1 -56 5 -75 9 -19 3 -64 8 -100 11 -35 3 -81 10 -101 15 -21 6 -41 10 -46
9 -4 -1 -10 -1 -13 0 -3 1 -29 3 -58 5 -29 2 -55 6 -59 9 -3 4 4 30 15 59 22
57 29 79 30 91 1 4 8 15 17 23 8 9 15 27 16 42 0 15 2 43 4 63 4 34 1 38 -47
69 -61 40 -143 53 -154 26 -3 -9 -32 -29 -63 -44 -31 -15 -62 -33 -69 -39 -7
-7 -20 -13 -27 -13 -8 0 -30 -10 -51 -22 -36 -21 -37 -21 -51 -3 -7 11 -11 25
-9 31 3 7 -2 18 -10 24 -8 7 -14 20 -14 30 0 20 -37 167 -45 181 -4 5 -8 23
-10 40 -3 17 -9 37 -15 44 -10 12 -6 55 7 78 5 8 83 0 118 -13z m187 -537 c-9
-4 -10 -8 -2 -18 8 -9 4 -28 -15 -68 -14 -31 -25 -61 -25 -66 0 -6 -4 -11 -10
-11 -18 0 -11 -20 8 -21 16 -1 16 -2 0 -6 -14 -3 -16 -9 -8 -23 8 -15 6 -20
-11 -25 -11 -4 -18 -13 -15 -20 9 -23 -6 -25 -23 -2 -28 38 -63 108 -57 114 3
3 1 13 -4 23 -11 21 17 60 43 60 9 0 28 11 43 25 31 29 44 32 44 10 0 -8 5
-15 11 -15 5 0 7 5 4 10 -9 15 2 40 17 39 10 0 10 -2 0 -6z m2793 -373 c3 -5
1 -10 -4 -10 -6 0 -11 5 -11 10 0 6 2 10 4 10 3 0 8 -4 11 -10z m-2603 -12
c11 11 58 3 58 -10 0 -6 7 -5 15 2 10 8 19 9 28 2 11 -9 87 -20 182 -28 124
-9 136 -14 114 -40 -8 -10 -13 -26 -11 -37 2 -10 -1 -16 -6 -13 -5 3 -13 -10
-16 -29 -4 -19 -11 -35 -16 -35 -6 0 -10 -7 -10 -15 0 -8 -4 -15 -10 -15 -5 0
-10 -8 -10 -19 0 -10 -7 -24 -15 -31 -8 -7 -15 -25 -15 -40 0 -16 -7 -30 -15
-34 -8 -3 -15 -13 -15 -21 0 -9 -4 -13 -10 -10 -6 4 -10 -5 -10 -19 0 -15 -8
-31 -20 -38 -13 -9 -20 -24 -20 -45 0 -23 -5 -33 -15 -33 -9 0 -15 -10 -15
-26 0 -14 -4 -23 -8 -20 -5 3 -15 -17 -22 -44 -10 -38 -18 -50 -33 -50 -16 0
-18 -5 -14 -27 4 -20 -1 -31 -19 -46 -13 -10 -24 -29 -24 -41 0 -45 -23 -38
-46 14 -21 46 -53 135 -60 165 -4 17 -18 54 -31 83 -26 59 -106 291 -105 307
0 6 7 43 16 84 22 106 46 126 130 108 22 -4 43 -4 48 1z"/>
<path d="M5870 2665 c0 -8 2 -15 4 -15 2 0 6 7 10 15 3 8 1 15 -4 15 -6 0 -10
-7 -10 -15z"/>
<path d="M6281 2114 c0 -11 3 -14 6 -6 3 7 2 16 -1 19 -3 4 -6 -2 -5 -13z"/>
<path d="M8758 9404 c-3 -2 -32 -4 -66 -5 -35 -1 -65 -6 -68 -11 -3 -5 -6 -29
-7 -53 -1 -25 -5 -45 -9 -45 -4 0 -5 -7 -2 -15 4 -8 12 -15 20 -15 8 0 14 -7
14 -15 0 -9 6 -12 17 -8 13 5 15 3 9 -12 -4 -11 -4 -16 0 -12 4 3 16 -10 26
-31 22 -41 90 -123 202 -244 25 -26 49 -63 56 -82 6 -19 17 -37 25 -40 8 -3
15 -14 15 -24 0 -10 7 -33 16 -51 9 -18 14 -41 11 -52 -3 -10 -1 -22 5 -25 5
-3 7 -13 4 -21 -3 -8 -1 -11 4 -8 6 3 10 2 10 -4 0 -10 -18 -16 -60 -23 -8 -1
-29 6 -47 15 -22 12 -33 13 -35 5 -3 -8 -11 -9 -24 -3 -18 8 -77 13 -176 15
-30 1 -48 6 -48 13 -1 8 -5 7 -13 -3 -10 -13 -69 -18 -112 -10 -5 1 -13 2 -17
1 -4 0 -85 -3 -180 -6 -95 -3 -207 -12 -248 -20 -41 -8 -99 -20 -129 -25 -29
-5 -59 -14 -66 -20 -10 -8 -14 -7 -18 2 -3 10 -9 9 -24 -4 -11 -10 -26 -18
-35 -18 -8 0 -37 -8 -64 -19 -46 -17 -120 -39 -154 -45 -47 -8 -534 -248 -524
-258 3 -3 -7 -8 -21 -12 -14 -4 -25 -11 -25 -16 0 -6 -5 -10 -11 -10 -15 0
-109 -64 -163 -111 -40 -35 -46 -46 -46 -80 0 -23 5 -39 12 -39 6 0 8 -3 5 -6
-4 -4 2 -19 13 -34 26 -37 76 -47 110 -22 14 10 40 22 58 25 18 4 42 16 54 27
12 11 28 18 34 16 7 -3 18 2 24 10 7 8 19 14 27 14 18 0 279 88 313 105 14 7
47 16 73 20 26 4 47 11 47 16 0 5 11 7 25 3 15 -4 25 -2 25 5 0 6 17 11 38 11
21 0 47 6 57 14 11 8 25 12 31 9 7 -2 15 0 19 6 3 6 24 11 46 11 21 0 39 5 39
10 0 6 16 10 35 10 19 0 43 4 53 9 9 5 49 15 87 21 39 6 81 13 95 16 14 2 54
7 90 10 36 3 78 9 94 15 18 6 32 6 35 0 8 -13 152 6 167 22 11 10 36 9 30 -2
-3 -5 26 -9 67 -9 39 0 115 -2 167 -6 278 -18 260 -13 265 -63 2 -15 7 -59 11
-98 4 -38 8 -83 10 -100 1 -16 5 -41 8 -55 3 -14 8 -37 11 -52 12 -62 16 -77
49 -172 19 -55 40 -103 47 -107 11 -6 19 -35 22 -81 1 -10 7 -18 14 -18 13 0
49 -59 45 -74 -2 -4 2 -14 8 -20 5 -7 9 -15 7 -17 -1 -2 3 2 10 9 9 11 12 8
11 -17 -1 -18 7 -41 19 -54 24 -27 52 -86 53 -113 0 -10 2 -71 5 -134 2 -63 6
-138 10 -167 3 -29 2 -53 -2 -53 -10 0 3 -215 14 -232 4 -7 8 -17 8 -23 2 -25
26 -65 39 -65 10 0 13 -9 11 -29 -3 -20 1 -31 12 -35 9 -4 13 -9 10 -12 -3 -3
5 -16 19 -29 13 -12 24 -27 24 -34 0 -6 5 -10 12 -9 7 2 12 -2 13 -7 0 -17 50
-66 69 -69 10 -1 21 -7 24 -13 10 -15 81 -33 87 -23 3 5 12 7 20 4 19 -8 32
21 45 102 14 84 14 124 0 138 -5 5 -10 19 -10 29 0 10 -9 31 -19 46 -11 15
-34 66 -51 112 -31 81 -32 89 -31 239 0 85 3 178 5 205 5 52 -34 204 -59 235
-7 8 -21 33 -31 55 -10 22 -22 45 -26 50 -21 26 -58 87 -58 95 0 5 -11 26 -25
46 -14 20 -25 42 -25 49 0 7 -7 18 -15 25 -15 12 -62 149 -71 205 -3 17 -6 39
-8 51 -2 11 -5 25 -9 30 -7 12 -18 152 -22 279 -12 367 -15 398 -44 488 -6 17
-18 53 -26 79 -22 73 -119 213 -192 282 -36 33 -102 98 -148 144 -45 45 -84
82 -86 82 -2 0 -18 4 -36 9 -17 5 -33 7 -35 5z"/>
<path d="M6000 8570 c0 -5 5 -10 10 -10 6 0 10 5 10 10 0 6 -4 10 -10 10 -5 0
-10 -4 -10 -10z"/>
<path d="M6170 8410 c0 -6 7 -10 15 -10 8 0 15 2 15 4 0 2 -7 6 -15 10 -8 3
-15 1 -15 -4z"/>
<path d="M3370 8270 c-8 -6 -27 -7 -42 -4 -15 3 -33 2 -40 -2 -7 -5 -38 -9
-68 -10 -30 -1 -89 -5 -130 -8 -41 -3 -118 -9 -170 -12 -122 -9 -111 -8 -137
-17 -13 -5 -23 -13 -23 -18 0 -5 -8 -9 -18 -9 -18 0 -40 -29 -46 -60 -2 -8 -6
-22 -9 -30 -3 -8 -11 -55 -17 -105 -6 -49 -13 -99 -15 -110 -3 -11 -11 -49
-19 -85 -26 -118 -57 -264 -71 -339 -18 -86 -42 -180 -54 -201 -4 -8 -16 -49
-26 -90 -9 -41 -24 -85 -31 -97 -8 -13 -12 -23 -9 -23 2 0 -6 -19 -19 -42 -13
-24 -27 -54 -31 -68 -10 -35 -68 -154 -77 -158 -5 -2 -4 -12 2 -21 10 -20 83
-37 200 -46 122 -10 131 -18 85 -79 -14 -18 -25 -40 -25 -48 0 -9 -7 -21 -15
-28 -9 -7 -14 -18 -12 -24 2 -6 -2 -25 -10 -43 -7 -18 -13 -43 -13 -55 0 -13
-10 -43 -22 -68 -12 -25 -25 -54 -29 -65 -5 -11 -20 -46 -34 -79 -14 -32 -25
-65 -25 -72 0 -8 -4 -14 -10 -14 -5 0 -13 -18 -16 -39 -4 -23 -13 -42 -22 -46
-14 -5 -14 -7 -2 -15 12 -8 10 -10 -8 -10 -19 0 -22 -4 -17 -20 3 -11 2 -20
-3 -20 -13 0 -25 -39 -23 -71 1 -18 -4 -28 -17 -31 -13 -4 -23 -24 -35 -74
-10 -37 -14 -71 -10 -75 5 -4 20 -11 36 -14 21 -6 27 -4 27 9 0 9 8 16 18 16
31 0 71 24 76 46 3 11 17 26 31 32 15 7 25 20 25 32 0 11 5 20 10 20 6 0 10 6
10 14 0 8 7 16 15 20 8 3 14 9 13 13 -1 4 15 26 35 47 20 22 37 43 37 47 0 8
58 99 69 109 4 3 12 17 20 33 8 15 27 42 43 59 15 17 28 37 28 43 0 7 12 25
27 41 15 16 28 31 28 34 0 3 15 25 33 50 42 57 122 179 122 185 0 7 52 87 67
103 7 7 13 20 13 28 0 8 3 14 8 14 4 0 15 17 24 38 9 20 28 50 42 65 14 15 29
39 32 52 3 14 10 25 14 25 9 0 50 80 50 98 0 17 -70 44 -105 40 -17 -1 -36 1
-43 6 -6 4 -16 5 -21 1 -15 -8 -25 15 -12 28 6 6 11 17 11 24 0 14 48 115 102
213 16 30 43 87 60 125 17 39 36 84 44 100 51 114 140 412 151 509 7 58 3 220
-5 228 -4 4 -14 3 -22 -2z m-68 -166 c8 -30 3 -85 -12 -119 -5 -11 -23 -69
-40 -130 -18 -60 -64 -189 -102 -285 -39 -96 -74 -186 -78 -200 -13 -42 -111
-240 -157 -316 -69 -114 -58 -164 36 -164 32 0 39 -3 35 -15 -4 -8 -12 -15
-19 -15 -17 0 -31 -40 -18 -49 6 -3 3 -18 -8 -36 -10 -16 -32 -57 -49 -90 -17
-33 -38 -67 -45 -75 -7 -8 -27 -40 -42 -70 -16 -30 -43 -75 -59 -99 -16 -24
-34 -52 -39 -61 -24 -39 -70 -107 -91 -130 -11 -14 -33 -45 -47 -70 -15 -25
-27 -41 -27 -36 0 19 113 316 155 407 50 108 54 142 25 199 -22 44 -26 45
-174 55 -50 3 -91 7 -93 9 -2 2 17 57 43 122 54 141 103 295 133 419 34 145
119 563 131 653 7 45 17 85 22 88 13 8 473 44 502 39 6 -1 13 -15 18 -31z"/>
<path d="M2858 6832 c-20 -4 -24 -17 -8 -27 14 -9 40 8 32 21 -4 5 -15 8 -24
6z"/>
<path d="M7780 7199 c-152 -9 -218 -17 -240 -29 -10 -6 -26 -7 -34 -4 -9 3
-16 1 -16 -5 0 -6 -10 -11 -22 -11 -38 0 -219 -39 -288 -62 -71 -23 -193 -79
-198 -90 -2 -5 -8 -8 -12 -8 -17 0 -57 -48 -69 -81 -8 -24 -8 -35 0 -46 9 -10
8 -18 -4 -31 -14 -16 -15 -25 -2 -82 19 -88 35 -118 67 -125 15 -4 32 -13 39
-21 6 -8 18 -14 26 -14 7 0 16 -7 19 -15 4 -8 10 -15 15 -15 6 0 20 -9 31 -20
12 -11 29 -18 39 -15 10 3 19 -1 22 -10 4 -8 13 -12 21 -9 8 3 24 -4 35 -15
12 -12 21 -18 21 -14 0 3 8 0 18 -8 19 -17 116 -64 148 -73 12 -4 26 -16 33
-29 l12 -22 -5 22 c-4 22 -3 22 23 5 14 -9 28 -19 31 -23 7 -8 97 -24 180 -30
19 -2 38 -7 42 -13 4 -6 17 -3 32 8 23 15 26 15 26 1 0 -10 5 -13 11 -9 7 4
35 9 63 11 79 7 109 5 134 -10 7 -5 14 -3 17 5 4 9 28 13 85 13 44 0 80 3 80
6 0 4 11 9 25 11 16 3 25 1 25 -7 0 -9 13 -12 43 -9 23 3 62 6 87 8 25 2 53 7
63 11 10 4 17 3 17 -4 0 -6 15 -2 35 9 20 11 35 15 35 9 0 -8 4 -8 13 0 8 6
23 9 36 6 13 -2 24 2 28 11 3 8 11 13 18 10 7 -2 29 4 49 15 20 10 36 16 36
12 0 -5 4 -2 9 6 5 7 29 16 55 18 32 4 55 14 76 34 16 16 34 29 40 29 5 0 10
7 10 15 0 8 5 15 11 15 5 0 8 -4 5 -8 -2 -4 5 -8 16 -8 14 0 24 12 35 38 8 21
21 38 28 38 7 0 19 14 27 30 7 17 16 30 19 30 8 0 4 68 -5 97 -4 12 -2 24 3
28 6 3 2 14 -9 25 -11 11 -22 30 -26 43 -3 14 -16 30 -30 37 -13 8 -24 19 -24
27 0 7 -9 13 -20 13 -11 0 -20 7 -20 15 0 8 -8 15 -17 15 -22 1 -53 23 -53 39
0 6 -8 11 -19 11 -10 0 -24 6 -30 14 -6 7 -75 45 -154 85 -131 65 -151 72
-247 85 -123 18 -407 25 -570 15z m763 -326 c23 -3 59 -16 79 -29 21 -13 42
-24 48 -24 5 0 10 -4 10 -8 0 -5 11 -14 25 -20 14 -7 25 -18 24 -24 -3 -28 2
-38 19 -38 15 -1 15 -2 -3 -15 -10 -9 -25 -28 -31 -43 -7 -15 -13 -21 -13 -14
-1 7 -15 12 -33 12 -23 0 -29 -3 -19 -9 17 -11 -3 -25 -24 -17 -8 3 -17 1 -20
-4 -3 -4 -24 -11 -47 -15 -48 -8 -110 -33 -119 -47 -4 -7 -14 -6 -27 1 -17 9
-20 18 -15 44 3 17 15 42 26 54 11 12 17 29 14 37 -4 9 0 31 8 50 10 22 11 37
5 41 -6 3 -10 24 -10 45 0 40 21 57 48 37 7 -5 31 -12 55 -14z m-1360 -35 c20
-10 23 -48 5 -66 -18 -18 -73 -15 -90 6 -19 23 -21 62 -2 62 8 0 14 5 14 10 0
11 42 4 73 -12z"/>
<path d="M9730 5900 c0 -5 7 -10 16 -10 8 0 12 5 9 10 -3 6 -10 10 -16 10 -5
0 -9 -4 -9 -10z"/>
<path d="M9755 5477 c-4 -10 -5 -21 -1 -24 10 -10 18 4 13 24 -4 17 -4 17 -12
0z"/>
<path d="M1110 4861 c0 -5 5 -13 10 -16 6 -3 10 -2 10 4 0 5 -4 13 -10 16 -5
3 -10 2 -10 -4z"/>
<path d="M3735 1907 c-8 -4 -20 -5 -26 -1 -6 3 -27 -1 -47 -9 -21 -8 -71 -26
-112 -38 -105 -32 -114 -43 -205 -249 -21 -47 -46 -98 -56 -115 -10 -16 -34
-64 -55 -105 -41 -80 -82 -146 -123 -196 -50 -60 -57 -69 -85 -117 -35 -61
-30 -85 30 -144 24 -25 44 -49 44 -54 0 -5 -11 -32 -24 -61 -41 -88 -54 -122
-62 -153 -4 -16 -13 -39 -20 -50 -8 -11 -14 -29 -14 -41 0 -12 -10 -28 -21
-36 -18 -11 -20 -20 -14 -47 7 -31 9 -33 39 -26 37 9 72 12 144 14 48 1 53 4
62 29 18 47 32 70 71 114 22 23 39 45 39 49 0 3 10 17 23 30 12 14 38 45 57
69 19 25 37 47 41 50 3 3 33 41 67 85 l61 79 -29 12 c-33 14 -59 50 -70 97 -6
31 -2 42 44 109 28 42 61 86 74 99 22 23 50 63 165 234 52 77 162 224 190 255
8 8 22 27 31 42 23 36 5 68 -40 68 -17 0 -34 3 -38 8 -10 10 -123 9 -141 -1z
m65 -126 c0 -4 -16 -24 -35 -45 -31 -35 -53 -68 -108 -168 -11 -21 -42 -64
-67 -95 -26 -32 -55 -73 -64 -92 -10 -18 -34 -52 -55 -75 -52 -58 -91 -112
-91 -128 -1 -7 -14 -29 -30 -48 -45 -52 -38 -80 23 -95 29 -8 36 -34 14 -57
-7 -7 -28 -34 -47 -60 -18 -27 -40 -48 -47 -48 -8 0 -11 4 -8 10 3 6 -1 7 -9
4 -9 -3 -16 -14 -16 -24 0 -10 -7 -23 -15 -30 -8 -7 -15 -23 -15 -35 0 -12
-11 -39 -25 -59 -14 -20 -25 -41 -25 -46 0 -6 -4 -10 -10 -10 -5 0 -10 -9 -10
-20 0 -11 -4 -20 -9 -20 -9 0 -26 -38 -24 -50 1 -3 -10 -14 -25 -24 -15 -11
-22 -14 -16 -5 4 8 7 22 6 32 -2 9 4 20 12 23 9 3 14 10 11 14 -3 5 29 75 70
156 41 82 75 158 75 169 0 24 -47 45 -115 53 -22 2 -44 8 -50 14 -7 6 -5 8 5
6 9 -2 14 3 12 13 -1 9 13 30 32 47 19 16 37 40 41 53 4 13 31 60 60 104 29
44 88 150 131 235 103 205 130 242 196 268 29 11 69 24 88 29 40 11 140 14
140 4z"/>
<path d="M10080 80 l0 -80 80 0 80 0 0 80 0 80 -80 0 -80 0 0 -80z"/>
</g>
</svg>
